<?xml version="1.0" encoding="UTF-8" standalone="no"?>


<svg
   xmlns:dc="http://purl.org/dc/elements/1.1/"
   xmlns:cc="http://creativecommons.org/ns#"
   xmlns:rdf="http://www.w3.org/1999/02/22-rdf-syntax-ns#"
   xmlns:svg="http://www.w3.org/2000/svg"
   xmlns="http://www.w3.org/2000/svg"
   xmlns:sodipodi="http://sodipodi.sourceforge.net/DTD/sodipodi-0.dtd"
   xmlns:inkscape="http://www.inkscape.org/namespaces/inkscape"
   width="180.12775"
   height="206.91248"
   id="svg8943"
   sodipodi:version="0.32"
   inkscape:version="0.48.4 r9939"
   version="1.0"
   sodipodi:docname="Ajax.svg">
  <defs
     id="defs1369" />
  <sodipodi:namedview
     id="base"
     pagecolor="#ffffff"
     bordercolor="#666666"
     borderopacity="1.0"
     inkscape:pageopacity="0.0"
     inkscape:pageshadow="2"
     inkscape:zoom="2"
     inkscape:cx="75.440634"
     inkscape:cy="86.504688"
     inkscape:document-units="px"
     inkscape:current-layer="layer1"
     inkscape:window-width="1280"
     inkscape:window-height="1001"
     inkscape:window-x="-8"
     inkscape:window-y="-8"
     showgrid="false"
     inkscape:window-maximized="1" />
  <metadata
     id="metadata1372">
    <rdf:RDF>
      <cc:Work
         rdf:about="">
        <dc:format>image/svg+xml</dc:format>
        <dc:type
           rdf:resource="http://purl.org/dc/dcmitype/StillImage" />
      </cc:Work>
    </rdf:RDF>
  </metadata>
  <g
     inkscape:label="Capa 1"
     inkscape:groupmode="layer"
     id="layer1"
     transform="translate(-263.3116,-222.4164)">
    <g
       id="g15795">
      <path
         style="font-size:4.28030013999999960px;letter-spacing:0.21701001000000000;word-spacing:-0.00128410000000000;fill:#ce0f25;fill-opacity:1;fill-rule:nonzero;stroke:none;stroke-width:0.06200000000000000;stroke-linecap:butt;stroke-linejoin:miter;stroke-miterlimit:4;stroke-dasharray:none;font-family:'fnt0, &quot;GrotesqueMT&quot;, Arial'"
         d="M 264.33734,292.37787 C 262.90122,291.76237 273.98011,269.60457 273.98011,269.60457 C 273.98011,269.60457 280.95581,261.80817 281.98161,253.6016 C 282.80232,245.39502 289.98309,248.26736 289.98309,248.26736 C 287.72626,241.49689 292.85542,240.67617 292.85542,240.67617 C 295.93284,241.49689 304.54984,236.77803 304.54984,236.77803 C 311.11509,229.59726 330.19548,223.4423 330.19548,223.4423 L 330.19548,222.41639 L 298.39487,222.41639 C 288.54686,224.05781 290.39339,225.69914 285.87974,227.75074 C 281.5713,229.80236 282.80232,221.39058 281.98161,223.23711 C 280.54551,226.51973 275.62145,228.36624 275.00593,227.34044 C 263.10644,219.95447 263.10644,224.87842 264.13224,228.16104 C 269.46649,237.80384 266.59414,240.06066 263.51673,240.67617 C 265.77354,242.11228 268.03038,243.7537 267.41487,247.44663 C 266.38905,248.47244 264.54253,252.57579 263.51673,257.49973 C 263.31151,267.55283 263.10644,291.96757 263.72194,292.37787 C 264.33734,292.78818 264.33734,292.37787 264.33734,292.37787"
         class="ps06 ps12 ps256"
         id="path3103" />
      <path
         style="font-size:4.28030014px;letter-spacing:0.21701001;word-spacing:-0.0012841;fill:white;fill-rule:nonzero;stroke:none;stroke-width:0.062;stroke-linecap:butt;stroke-linejoin:miter;stroke-miterlimit:4;stroke-dasharray:none;font-family:fnt0, &quot;GrotesqueMT&quot;, Arial"
         d="M 265.15805,225.69914 L 275.62145,235.34192 C 274.80083,236.98325 272.74922,236.57282 270.9027,235.54701 C 268.85098,234.31601 263.72194,226.93004 265.15805,225.69914"
         class="ps05 ps12 ps256"
         id="path3105" />
      <path
         style="font-size:4.28030014px;letter-spacing:0.21701001;word-spacing:-0.0012841;fill:white;fill-rule:nonzero;stroke:none;stroke-width:0.062;stroke-linecap:butt;stroke-linejoin:miter;stroke-miterlimit:4;stroke-dasharray:none;font-family:fnt0, &quot;GrotesqueMT&quot;, Arial"
         d="M 279.51958,233.29021 C 279.51958,233.29021 277.87826,232.8799 278.08347,233.29021 C 278.49377,233.4954 278.08347,229.80236 276.44216,228.57146 C 277.87826,228.77655 280.13509,227.54553 280.54551,227.54553 C 279.31449,229.59726 279.51958,233.29021 279.51958,233.29021"
         class="ps05 ps12 ps256"
         id="path3107" />
      <path
         style="font-size:4.28030014px;letter-spacing:0.21701001;word-spacing:-0.0012841;fill:white;fill-rule:nonzero;stroke:none;stroke-width:0.062;stroke-linecap:butt;stroke-linejoin:miter;stroke-miterlimit:4;stroke-dasharray:none;font-family:fnt0, &quot;GrotesqueMT&quot;, Arial"
         d="M 277.05766,241.90719 C 272.95432,251.34477 266.79936,271.65617 265.15805,280.27318 C 265.15805,261.19278 261.25991,249.29316 276.44216,240.67617 C 277.05766,240.47096 277.05766,241.29168 277.05766,241.90719"
         class="ps05 ps12 ps256"
         id="path3109" />
      <path
         style="font-size:4.28030014px;letter-spacing:0.21701001;word-spacing:-0.0012841;fill:white;fill-rule:nonzero;stroke:none;stroke-width:0.062;stroke-linecap:butt;stroke-linejoin:miter;stroke-miterlimit:4;stroke-dasharray:none;font-family:fnt0, &quot;GrotesqueMT&quot;, Arial"
         d="M 276.03186,237.59863 C 276.03186,235.95731 277.46797,234.72642 279.10927,234.72642 C 280.54551,234.72642 281.98161,235.95731 281.98161,237.59863 C 281.98161,239.03485 280.54551,240.47096 279.10927,240.47096 C 277.46797,240.47096 276.03186,239.03485 276.03186,237.59863"
         class="ps05 ps12 ps256"
         id="path3111" />
      <path
         style="font-size:4.28030014px;letter-spacing:0.21701001;word-spacing:-0.0012841;fill:white;fill-rule:nonzero;stroke:none;stroke-width:0.062;stroke-linecap:butt;stroke-linejoin:miter;stroke-miterlimit:4;stroke-dasharray:none;font-family:fnt0, &quot;GrotesqueMT&quot;, Arial"
         d="M 283.62292,235.13673 C 293.26573,231.44367 313.57711,225.69914 322.1941,224.05781 C 303.1136,223.6474 291.21411,219.54417 282.3919,234.52122 C 282.18681,235.34192 283.00742,235.34192 283.62292,235.13673"
         class="ps05 ps12 ps256"
         id="path3113" />
      <path
         style="font-size:4.28030014px;letter-spacing:0.21701001;word-spacing:-0.0012841;fill:white;fill-rule:nonzero;stroke:none;stroke-width:0.062;stroke-linecap:butt;stroke-linejoin:miter;stroke-miterlimit:4;stroke-dasharray:none;font-family:fnt0, &quot;GrotesqueMT&quot;, Arial"
         d="M 281.16101,241.08647 C 283.41783,242.5227 287.11076,246.42084 286.49524,246.42084 C 284.44364,246.21562 282.80232,247.65185 282.3919,248.47244 C 282.59712,246.01053 281.36611,242.7278 281.16101,241.08647"
         class="ps05 ps12 ps256"
         id="path3115" />
      <path
         style="font-size:4.28030014px;letter-spacing:0.21701001;word-spacing:-0.0012841;fill:white;fill-rule:nonzero;stroke:none;stroke-width:0.062;stroke-linecap:butt;stroke-linejoin:miter;stroke-miterlimit:4;stroke-dasharray:none;font-family:fnt0, &quot;GrotesqueMT&quot;, Arial"
         d="M 274.59563,238.00905 C 274.59563,238.00905 273.77503,239.44516 273.98011,239.24006 C 274.39055,238.82965 269.67168,238.62456 268.03038,239.85545 C 268.64588,238.41935 268.85098,235.95731 269.05618,235.34192 C 270.69749,237.18833 274.59563,238.00905 274.59563,238.00905"
         class="ps05 ps12 ps256"
         id="path3117" />
    </g>
    <g
       id="g15825">
      <path
         style="font-size:4.28030013999999960px;letter-spacing:0.21701001000000000;word-spacing:-0.00128410000000000;fill:#ce0f25;fill-opacity:1;fill-rule:nonzero;stroke:none;stroke-width:0.06200000000000000;stroke-linecap:butt;stroke-linejoin:miter;stroke-miterlimit:4;stroke-dasharray:none;font-family:'fnt0, &quot;GrotesqueMT&quot;, Arial'"
         d="M 289.98309,403.78276 C 286.49524,409.32222 291.6244,411.37384 291.6244,411.37384 C 294.70181,410.75833 304.54984,415.47717 304.54984,415.47717 C 315.62873,424.09416 328.34908,427.7871 328.34908,427.7871 L 328.14386,429.01811 C 328.14386,429.01811 305.98593,429.83871 298.39487,428.81291 C 288.13657,425.53028 290.39339,426.14578 285.87974,424.09416 C 281.5713,422.04244 282.80232,430.45422 281.98161,428.60781 C 280.54551,425.32518 275.21113,424.09416 274.80083,425.11998 C 262.90122,433.32655 262.90122,426.9665 264.13224,423.68374 C 273.77503,413.83587 263.72194,411.78425 264.33734,411.98934 C 266.38905,410.55324 269.87689,409.93773 269.2614,406.24468 C 268.23558,405.01378 265.15805,399.47435 264.13224,394.75548 C 262.49092,384.29208 264.13224,359.46704 264.13224,359.46704 L 264.95284,359.46704 C 267.41487,370.34072 278.69898,389.83154 280.13509,390.65214 C 283.00742,397.21751 282.80232,402.14145 282.80232,402.14145 C 284.44364,403.57757 285.05916,405.42408 289.98309,403.78276"
         class="ps06 ps12 ps256"
         id="path3119" />
      <path
         style="font-size:4.28030014px;letter-spacing:0.21701001;word-spacing:-0.0012841;fill:white;fill-rule:nonzero;stroke:none;stroke-width:0.062;stroke-linecap:butt;stroke-linejoin:miter;stroke-miterlimit:4;stroke-dasharray:none;font-family:fnt0, &quot;GrotesqueMT&quot;, Arial"
         d="M 265.15805,427.1716 L 275.62145,417.52879 C 274.80083,415.06689 273.15954,416.29789 271.31301,417.32369 C 269.46649,418.55471 263.72194,425.11998 265.15805,427.1716"
         class="ps05 ps12 ps256"
         id="path3121" />
      <path
         style="font-size:4.28030014px;letter-spacing:0.21701001;word-spacing:-0.0012841;fill:white;fill-rule:nonzero;stroke:none;stroke-width:0.062;stroke-linecap:butt;stroke-linejoin:miter;stroke-miterlimit:4;stroke-dasharray:none;font-family:fnt0, &quot;GrotesqueMT&quot;, Arial"
         d="M 278.90418,419.17011 C 278.90418,419.17011 277.87826,418.96503 278.08347,418.75981 C 277.46797,419.17011 277.26276,421.83735 276.44216,423.27346 C 277.87826,423.06837 280.13509,424.29926 280.54551,424.29926 C 279.31449,422.24765 278.90418,419.17011 278.90418,419.17011"
         class="ps05 ps12 ps256"
         id="path3123" />
      <path
         style="font-size:4.28030014px;letter-spacing:0.21701001;word-spacing:-0.0012841;fill:white;fill-rule:nonzero;stroke:none;stroke-width:0.062;stroke-linecap:butt;stroke-linejoin:miter;stroke-miterlimit:4;stroke-dasharray:none;font-family:fnt0, &quot;GrotesqueMT&quot;, Arial"
         d="M 277.05766,410.14294 C 271.51821,400.91043 267.00456,378.75251 265.15805,368.90462 C 264.95284,387.98502 261.87543,401.52594 276.44216,411.37384 C 277.05766,411.37384 277.05766,410.55324 277.05766,410.14294"
         class="ps05 ps12 ps256"
         id="path3125" />
      <path
         style="font-size:4.28030014px;letter-spacing:0.21701001;word-spacing:-0.0012841;fill:white;fill-rule:nonzero;stroke:none;stroke-width:0.062;stroke-linecap:butt;stroke-linejoin:miter;stroke-miterlimit:4;stroke-dasharray:none;font-family:fnt0, &quot;GrotesqueMT&quot;, Arial"
         d="M 276.03186,414.45137 C 276.03186,412.81005 277.46797,411.57903 279.10927,411.57903 C 280.54551,411.57903 281.98161,412.81005 281.98161,414.45137 C 281.98161,416.09268 280.54551,417.32369 279.10927,417.32369 C 277.46797,417.32369 276.03186,416.09268 276.03186,414.45137"
         class="ps05 ps12 ps256"
         id="path3127" />
      <path
         style="font-size:4.28030014px;letter-spacing:0.21701001;word-spacing:-0.0012841;fill:white;fill-rule:nonzero;stroke:none;stroke-width:0.062;stroke-linecap:butt;stroke-linejoin:miter;stroke-miterlimit:4;stroke-dasharray:none;font-family:fnt0, &quot;GrotesqueMT&quot;, Arial"
         d="M 283.62292,414.65647 C 298.18966,408.29641 306.60144,419.37533 318.91136,426.351 C 306.39635,423.06837 288.75208,417.52879 283.21262,415.47717 L 283.62292,414.65647"
         class="ps05 ps12 ps256"
         id="path3129" />
      <path
         style="font-size:4.28030014px;letter-spacing:0.21701001;word-spacing:-0.0012841;fill:white;fill-rule:nonzero;stroke:none;stroke-width:0.062;stroke-linecap:butt;stroke-linejoin:miter;stroke-miterlimit:4;stroke-dasharray:none;font-family:fnt0, &quot;GrotesqueMT&quot;, Arial"
         d="M 281.16101,410.75833 C 283.21262,410.14294 287.11076,405.42408 286.49524,405.42408 C 282.80232,404.60337 283.62292,405.01378 282.3919,403.37247 C 282.59712,406.03959 280.54551,409.32222 281.16101,410.75833"
         class="ps05 ps12 ps256"
         id="path3131" />
      <path
         style="font-size:4.28030014px;letter-spacing:0.21701001;word-spacing:-0.0012841;fill:white;fill-rule:nonzero;stroke:none;stroke-width:0.062;stroke-linecap:butt;stroke-linejoin:miter;stroke-miterlimit:4;stroke-dasharray:none;font-family:fnt0, &quot;GrotesqueMT&quot;, Arial"
         d="M 275.00593,413.01515 C 275.00593,413.01515 275.21113,411.78425 275.41635,412.19454 C 275.62145,412.39975 271.31301,410.14294 270.69749,408.0912 C 270.28719,409.73252 268.03038,411.37384 267.62007,411.78425 C 269.87689,411.78425 275.00593,413.01515 275.00593,413.01515"
         class="ps05 ps12 ps256"
         id="path3133" />
    </g>
    <g
       id="g15805">
      <path
         style="font-size:4.28030013999999960px;letter-spacing:0.21701001000000000;word-spacing:-0.00128410000000000;fill:#ce0f25;fill-opacity:1;fill-rule:nonzero;stroke:none;stroke-width:0.06200000000000000;stroke-linecap:butt;stroke-linejoin:miter;stroke-miterlimit:4;stroke-dasharray:none;font-family:'fnt0, &quot;GrotesqueMT&quot;, Arial'"
         d="M 440.77977,291.35207 C 440.36935,289.09525 430.52148,269.60457 430.52148,269.60457 C 430.52148,269.60457 422.72518,259.14104 422.93028,255.0377 C 423.13549,243.5485 415.13399,248.88275 415.13399,248.88275 C 418.21154,242.93298 412.26167,240.67617 412.26167,240.67617 C 410.62038,241.49689 401.59307,236.77803 401.59307,236.77803 C 395.0278,229.59726 375.94743,223.4423 375.94743,223.4423 L 375.94743,222.41639 L 411.03065,222.41639 C 420.67346,224.05781 419.85286,228.36624 422.31477,227.54553 C 425.59752,226.31464 423.54578,222.6216 425.1871,224.05781 C 428.26464,226.51973 430.11117,227.34044 430.52148,226.31464 C 442.42108,218.92866 441.80558,224.46812 440.98486,228.16104 C 439.13833,231.44367 437.29193,233.7005 436.88163,235.54701 C 436.26613,238.21415 437.70223,240.06066 439.54875,240.47096 C 437.29193,241.90719 433.8041,243.9588 438.72804,247.44663 C 439.75384,248.47244 440.77977,252.57579 441.80558,257.29453 C 442.01068,267.34774 443.03659,295.86572 442.42108,296.27601 C 441.80558,296.89152 440.77977,291.35207 440.77977,291.35207"
         class="ps06 ps12 ps256"
         id="path3135" />
      <path
         style="font-size:4.28030014px;letter-spacing:0.21701001;word-spacing:-0.0012841;fill:white;fill-rule:nonzero;stroke:none;stroke-width:0.062;stroke-linecap:butt;stroke-linejoin:miter;stroke-miterlimit:4;stroke-dasharray:none;font-family:fnt0, &quot;GrotesqueMT&quot;, Arial"
         d="M 438.72804,224.2629 L 429.08524,233.90571 C 428.05943,235.54701 427.03362,231.85409 430.72655,227.95595 C 434.0093,224.46812 436.88163,224.46812 438.72804,224.2629"
         class="ps05 ps12 ps256"
         id="path3137" />
      <path
         style="font-size:4.28030014px;letter-spacing:0.21701001;word-spacing:-0.0012841;fill:white;fill-rule:nonzero;stroke:none;stroke-width:0.062;stroke-linecap:butt;stroke-linejoin:miter;stroke-miterlimit:4;stroke-dasharray:none;font-family:fnt0, &quot;GrotesqueMT&quot;, Arial"
         d="M 424.1613,233.4954 C 424.1613,233.4954 425.80261,233.29021 425.59752,233.4954 C 425.80261,233.29021 424.3665,228.36624 425.59752,227.54553 C 423.54578,227.75074 424.3665,228.57146 422.93028,228.57146 C 424.1613,230.62308 424.1613,233.4954 424.1613,233.4954"
         class="ps05 ps12 ps256"
         id="path3139" />
      <path
         style="font-size:4.28030014px;letter-spacing:0.21701001;word-spacing:-0.0012841;fill:white;fill-rule:nonzero;stroke:none;stroke-width:0.062;stroke-linecap:butt;stroke-linejoin:miter;stroke-miterlimit:4;stroke-dasharray:none;font-family:fnt0, &quot;GrotesqueMT&quot;, Arial"
         d="M 427.23883,241.29168 C 431.13697,251.75507 435.65062,272.68199 437.90744,280.88856 C 431.34207,265.29602 419.03214,258.32046 425.39231,241.29168 L 427.23883,241.29168"
         class="ps05 ps12 ps256"
         id="path3141" />
      <path
         style="font-size:4.28030014px;letter-spacing:0.21701001;word-spacing:-0.0012841;fill:white;fill-rule:nonzero;stroke:none;stroke-width:0.062;stroke-linecap:butt;stroke-linejoin:miter;stroke-miterlimit:4;stroke-dasharray:none;font-family:fnt0, &quot;GrotesqueMT&quot;, Arial"
         d="M 423.34069,237.18833 C 423.34069,235.75223 424.57159,234.31601 426.21292,234.31601 C 427.85434,234.31601 429.08524,235.75223 429.08524,237.18833 C 429.08524,238.82965 427.85434,240.06066 426.21292,240.06066 C 424.57159,240.06066 423.34069,238.82965 423.34069,237.18833"
         class="ps05 ps12 ps256"
         id="path3143" />
      <path
         style="font-size:4.28030014px;letter-spacing:0.21701001;word-spacing:-0.0012841;fill:white;fill-rule:nonzero;stroke:none;stroke-width:0.062;stroke-linecap:butt;stroke-linejoin:miter;stroke-miterlimit:4;stroke-dasharray:none;font-family:fnt0, &quot;GrotesqueMT&quot;, Arial"
         d="M 422.51999,235.13673 C 412.87718,231.44367 392.56578,225.69914 383.94891,224.05781 C 402.00349,223.6474 417.80113,220.56998 423.34069,233.4954 C 423.34069,234.31601 423.13549,235.34192 422.51999,235.13673"
         class="ps05 ps12 ps256"
         id="path3145" />
      <path
         style="font-size:4.28030014px;letter-spacing:0.21701001;word-spacing:-0.0012841;fill:white;fill-rule:nonzero;stroke:none;stroke-width:0.062;stroke-linecap:butt;stroke-linejoin:miter;stroke-miterlimit:4;stroke-dasharray:none;font-family:fnt0, &quot;GrotesqueMT&quot;, Arial"
         d="M 422.93028,239.85545 C 420.05796,240.06066 415.54431,241.08647 415.33921,241.08647 C 417.59604,241.08647 417.18574,245.18982 417.59604,246.01053 C 418.82705,243.5485 422.72518,241.49689 422.93028,239.85545"
         class="ps05 ps12 ps256"
         id="path3147" />
      <path
         style="font-size:4.28030014px;letter-spacing:0.21701001;word-spacing:-0.0012841;fill:white;fill-rule:nonzero;stroke:none;stroke-width:0.062;stroke-linecap:butt;stroke-linejoin:miter;stroke-miterlimit:4;stroke-dasharray:none;font-family:fnt0, &quot;GrotesqueMT&quot;, Arial"
         d="M 430.52148,237.59863 C 430.52148,237.59863 431.54727,239.03485 431.13697,238.62456 C 431.95757,239.24006 434.41961,239.24006 436.26613,239.44516 C 435.8557,238.00905 435.44541,235.95731 435.24019,235.34192 C 433.59889,237.18833 430.52148,237.59863 430.52148,237.59863"
         class="ps05 ps12 ps256"
         id="path3149" />
    </g>
    <g
       id="g15815">
      <path
         style="font-size:4.28030013999999960px;letter-spacing:0.21701001000000000;word-spacing:-0.00128410000000000;fill:#ce0f25;fill-opacity:1;fill-rule:nonzero;stroke:none;stroke-width:0.06200000000000000;stroke-linecap:butt;stroke-linejoin:miter;stroke-miterlimit:4;stroke-dasharray:none;font-family:'fnt0, &quot;GrotesqueMT&quot;, Arial'"
         d="M 422.31477,424.09416 C 419.85286,423.06837 420.05796,426.351 410.21006,427.7871 L 379.02486,428.40261 L 379.02486,427.58189 C 379.02486,427.58189 394.82262,421.83735 402.00349,415.06689 C 402.00349,415.06689 407.95324,409.93773 415.13399,409.52743 C 415.13399,409.52743 421.08388,407.8861 417.59604,400.91043 C 417.59604,400.91043 424.3665,405.01378 424.3665,395.98649 C 424.3665,391.88316 431.75248,381.00933 431.75248,381.00933 C 431.75248,381.00933 441.19007,362.74967 441.39516,360.28764 C 441.39516,360.28764 442.01068,355.9792 442.62617,356.59472 C 443.24168,357.005 443.03659,383.47137 442.83138,393.52446 C 441.80558,398.24332 440.16425,402.34654 439.34354,403.57757 C 438.31773,406.03959 440.98486,408.0912 443.24168,409.52743 C 441.39516,409.93773 438.52294,413.01515 439.13833,415.47717 C 439.54875,417.52879 440.77977,418.1443 442.62617,421.22184 C 443.65198,425.11998 445.9088,430.45422 432.57309,424.50447 C 431.13697,424.50447 431.54727,422.04244 426.82841,427.37679 C 424.7768,425.53028 426.4181,424.29926 422.31477,424.09416"
         class="ps06 ps12 ps256"
         id="path3151" />
      <path
         style="font-size:4.28030014px;letter-spacing:0.21701001;word-spacing:-0.0012841;fill:white;fill-rule:nonzero;stroke:none;stroke-width:0.062;stroke-linecap:butt;stroke-linejoin:miter;stroke-miterlimit:4;stroke-dasharray:none;font-family:fnt0, &quot;GrotesqueMT&quot;, Arial"
         d="M 441.19007,426.14578 L 432.16278,417.1185 C 429.90596,416.09268 429.70074,418.75981 433.3938,422.65795 C 435.65062,424.91476 438.72804,426.55609 441.19007,426.14578"
         class="ps05 ps12 ps256"
         id="path3153" />
      <path
         style="font-size:4.28030014px;letter-spacing:0.21701001;word-spacing:-0.0012841;fill:white;fill-rule:nonzero;stroke:none;stroke-width:0.062;stroke-linecap:butt;stroke-linejoin:miter;stroke-miterlimit:4;stroke-dasharray:none;font-family:fnt0, &quot;GrotesqueMT&quot;, Arial"
         d="M 426.82841,417.52879 C 426.82841,417.52879 427.85434,417.93921 427.64912,417.734 C 427.85434,417.734 426.4181,422.86315 426.4181,423.88896 C 424.3665,423.68374 424.1613,422.65795 422.72518,422.65795 C 423.95608,420.60632 426.82841,417.52879 426.82841,417.52879"
         class="ps05 ps12 ps256"
         id="path3155" />
      <path
         style="font-size:4.28030014px;letter-spacing:0.21701001;word-spacing:-0.0012841;fill:white;fill-rule:nonzero;stroke:none;stroke-width:0.062;stroke-linecap:butt;stroke-linejoin:miter;stroke-miterlimit:4;stroke-dasharray:none;font-family:fnt0, &quot;GrotesqueMT&quot;, Arial"
         d="M 429.08524,409.117 C 435.24019,399.06391 438.72804,374.23887 440.77977,366.0323 C 429.90596,388.3953 421.49417,394.34518 427.44393,408.91193 L 429.08524,409.117"
         class="ps05 ps12 ps256"
         id="path3157" />
      <path
         style="font-size:4.28030014px;letter-spacing:0.21701001;word-spacing:-0.0012841;fill:white;fill-rule:nonzero;stroke:none;stroke-width:0.062;stroke-linecap:butt;stroke-linejoin:miter;stroke-miterlimit:4;stroke-dasharray:none;font-family:fnt0, &quot;GrotesqueMT&quot;, Arial"
         d="M 426.82841,413.22035 C 426.82841,411.57903 428.05943,410.34802 429.70074,410.34802 C 431.13697,410.34802 432.57309,411.57903 432.57309,413.22035 C 432.57309,414.86167 431.13697,416.09268 429.70074,416.09268 C 428.05943,416.09268 426.82841,414.86167 426.82841,413.22035"
         class="ps05 ps12 ps256"
         id="path3159" />
      <path
         style="font-size:4.28030014px;letter-spacing:0.21701001;word-spacing:-0.0012841;fill:white;fill-rule:nonzero;stroke:none;stroke-width:0.062;stroke-linecap:butt;stroke-linejoin:miter;stroke-miterlimit:4;stroke-dasharray:none;font-family:fnt0, &quot;GrotesqueMT&quot;, Arial"
         d="M 425.59752,410.96354 C 422.31477,409.93773 420.67346,409.117 418.00635,409.73252 C 418.82705,409.73252 419.64765,406.03959 420.26315,404.80856 C 421.49417,407.27061 425.39231,409.32222 425.59752,410.96354"
         class="ps05 ps12 ps256"
         id="path3161" />
      <path
         style="font-size:4.28030014px;letter-spacing:0.21701001;word-spacing:-0.0012841;fill:white;fill-rule:nonzero;stroke:none;stroke-width:0.062;stroke-linecap:butt;stroke-linejoin:miter;stroke-miterlimit:4;stroke-dasharray:none;font-family:fnt0, &quot;GrotesqueMT&quot;, Arial"
         d="M 432.98338,411.16874 C 432.98338,411.16874 433.3938,409.73252 433.18859,409.93773 C 433.59889,409.52743 438.72804,406.03959 437.90744,406.03959 C 437.29193,407.68092 440.77977,409.52743 440.57456,409.93773 C 437.90744,409.93773 432.98338,411.16874 432.98338,411.16874"
         class="ps05 ps12 ps256"
         id="path3163" />
      <path
         style="font-size:4.28030014px;letter-spacing:0.21701001;word-spacing:-0.0012841;fill:white;fill-rule:nonzero;stroke:none;stroke-width:0.062;stroke-linecap:butt;stroke-linejoin:miter;stroke-miterlimit:4;stroke-dasharray:none;font-family:fnt0, &quot;GrotesqueMT&quot;, Arial"
         d="M 389.28316,425.11998 C 404.26032,422.45286 427.44393,413.42556 426.00782,413.01515 C 415.13399,408.29641 408.36354,411.78425 397.48984,419.58052 L 389.28316,425.11998"
         class="ps05 ps12 ps256"
         id="path3165" />
    </g>
    <g
       id="g15846">
      <g
         id="g15842">
        <path
           id="path3167"
           class="ps051 ps12 ps256"
           d="M 352.7637,414.67298 C 395.43811,414.67298 428.07451,380.59904 428.07451,324.9992 C 428.07451,274.9388 395.43811,237.37714 352.7637,237.37714 C 310.08929,237.37714 277.2478,275.04141 277.2478,324.9992 C 277.2478,374.95699 310.08929,414.67298 352.7637,414.67298"
           style="font-size:4.28030014px;letter-spacing:0.21701001;word-spacing:-0.0012841;fill:white;fill-opacity:1;fill-rule:nonzero;stroke:none;stroke-width:0.062;stroke-linecap:butt;stroke-linejoin:miter;stroke-miterlimit:4;stroke-dasharray:none;font-family:fnt0, &quot;GrotesqueMT&quot;, Arial"
           sodipodi:nodetypes="csszc" />
        <path
           id="path3169"
           class="ps013 ps15 ps256"
           d="M 353.7895,414.86167 C 395.0278,414.86167 428.46973,374.85438 428.46973,326.64051 C 428.46973,278.22144 395.0278,237.39355 353.7895,237.39355 C 312.34611,237.39355 277.67317,278.22144 277.67317,326.64051 C 277.67317,374.85438 312.34611,414.86167 353.7895,414.86167 z "
           style="font-size:4.28030013999999960px;letter-spacing:0.21701001000000000;word-spacing:-0.00128410000000000;fill:none;stroke:#ce0f25;stroke-width:3.03644967000000010;stroke-linecap:butt;stroke-linejoin:miter;stroke-miterlimit:4;stroke-dasharray:none;stroke-opacity:1;font-family:'fnt0, &quot;GrotesqueMT&quot;, Arial'" />
      </g>
      <g
         id="g15835">
        <path
           style="font-size:4.28030013999999960px;letter-spacing:0.21701001000000000;word-spacing:-0.00128410000000000;fill:#ce0f25;fill-opacity:1;fill-rule:nonzero;stroke:none;stroke-width:0.14799999999999999;stroke-linecap:butt;stroke-linejoin:miter;stroke-miterlimit:4;stroke-dasharray:none"
           d="M 308.84285,244.9789 L 289.5616,263.6039 L 289.5616,386.8539 L 308.84285,406.26015 L 308.84285,244.9789 z "
           id="path3171" />
        <path
           style="font-size:4.28030013999999960px;letter-spacing:0.21701001000000000;word-spacing:-0.00128410000000000;fill:#ce0f25;fill-opacity:1;fill-rule:nonzero;stroke:none;stroke-width:0.14799999999999999;stroke-linecap:butt;stroke-linejoin:miter;stroke-miterlimit:4;stroke-dasharray:none;font-family:'fnt0, &quot;GrotesqueMT&quot;, Arial'"
           d="M 344.5616,231.01015 L 325.28035,236.07265 L 325.28035,415.9789 L 344.5616,421.0414 L 344.5616,231.01015 z "
           id="path3173" />
        <path
           style="font-size:4.28030013999999960px;letter-spacing:0.21701001000000000;word-spacing:-0.00128410000000000;fill:#ce0f25;fill-opacity:1;fill-rule:nonzero;stroke:none;stroke-width:0.14799999999999999;stroke-linecap:butt;stroke-linejoin:miter;stroke-miterlimit:4;stroke-dasharray:none;font-family:'fnt0, &quot;GrotesqueMT&quot;, Arial'"
           d="M 360.96785,231.01015 L 360.78035,420.4164 L 380.0616,415.5414 L 380.0616,234.51015 L 360.96785,231.01015 z "
           id="path3175" />
        <path
           id="path3177"
           class="ps044 ps15 ps256"
           d="M 396.66913,243.73719 L 415.95472,259.8342 L 415.95472,388.99291 L 396.46391,405.85636 L 396.46391,243.92885"
           style="font-size:4.28030013999999960px;letter-spacing:0.21701001000000000;word-spacing:-0.00128410000000000;fill:#ce0f25;fill-opacity:1;fill-rule:nonzero;stroke:none;stroke-width:0.14799999999999999;stroke-linecap:butt;stroke-linejoin:miter;stroke-miterlimit:4;stroke-dasharray:none;font-family:'fnt0, &quot;GrotesqueMT&quot;, Arial'" />
        <path
           id="path3179"
           class="ps013 ps16 ps256"
           d="M 353.58441,422.65795 C 399.33625,422.65795 436.47121,379.16293 436.47121,325.61469 C 436.47121,272.06647 399.33625,228.57146 353.58441,228.57146 C 307.83246,228.57146 269.2614,272.06647 269.2614,325.61469 C 269.2614,379.16293 307.83246,422.65795 353.58441,422.65795 z "
           style="font-size:4.28030013999999960px;letter-spacing:0.21701001000000000;word-spacing:-0.00128410000000000;fill:none;stroke:#ce0f25;stroke-width:7.79628897000000000;stroke-linecap:butt;stroke-linejoin:miter;stroke-miterlimit:4;stroke-dasharray:none;stroke-opacity:1;font-family:'fnt0, &quot;GrotesqueMT&quot;, Arial'" />
      </g>
    </g>
  </g>
</svg>
